<?xml version="1.0" standalone="no"?><!DOCTYPE svg PUBLIC "-//W3C//DTD SVG 1.1//EN" "http://www.w3.org/Graphics/SVG/1.1/DTD/svg11.dtd"><svg t="1776352765229" class="icon" viewBox="0 0 1024 1024" version="1.1" xmlns="http://www.w3.org/2000/svg" p-id="5691" xmlns:xlink="http://www.w3.org/1999/xlink" width="200" height="200"><path d="M832.48 376.853333l12.266667-206.186666a5.333333 5.333333 0 0 0-5.813334-5.333334l-205.493333 19.466667a5.333333 5.333333 0 0 1-2.453333-0.32l-192-75.36a5.333333 5.333333 0 0 0-7.146667 3.786667L386.666667 314.24a5.706667 5.706667 0 0 1-1.12 2.186667L254.506667 475.946667a5.333333 5.333333 0 0 0 1.493333 7.946666l139.52 82.453334a5.333333 5.333333 0 0 1 1.066667 8.373333l-286.133334 286.026667a5.333333 5.333333 0 0 0 0 7.573333l45.226667 45.226667a5.333333 5.333333 0 0 0 7.573333 0l287.253334-287.253334a5.333333 5.333333 0 0 1 8.266666 0.906667l87.786667 137.386667a5.333333 5.333333 0 0 0 8.053333 1.12L709.333333 629.333333a4.586667 4.586667 0 0 1 2.186667-1.173333l199.84-52.16a5.333333 5.333333 0 0 0 3.573333-7.253333l-82.026666-189.44a5.333333 5.333333 0 0 1-0.426667-2.453334z" p-id="5692" fill="#8a8a8a"></path></svg>